<?xml version="1.0" standalone="no"?><!DOCTYPE svg PUBLIC "-//W3C//DTD SVG 1.1//EN" "http://www.w3.org/Graphics/SVG/1.1/DTD/svg11.dtd"><svg stroke-width="1.5" viewBox="0 0 24 24" version="1.1" xmlns="http://www.w3.org/2000/svg" xmlns:xlink="http://www.w3.org/1999/xlink"><defs><style>.cls-hx1fsflwgzki183vj93gpf-1{fill:none;stroke:#000000;stroke-miterlimit:10;;}</style></defs><g id="roll_brush" data-name="roll brush"><circle class="cls-hx1fsflwgzki183vj93gpf-1" cx="5.73" cy="13.45" r="0.48"/><circle class="cls-hx1fsflwgzki183vj93gpf-1" cx="7.65" cy="18.24" r="0.48"/><circle class="cls-hx1fsflwgzki183vj93gpf-1" cx="6.69" cy="8.65" r="0.48"/><circle class="cls-hx1fsflwgzki183vj93gpf-1" cx="10.52" cy="5.78" r="0.48"/><circle class="cls-hx1fsflwgzki183vj93gpf-1" cx="15.32" cy="6.74" r="0.48"/><circle class="cls-hx1fsflwgzki183vj93gpf-1" cx="18.2" cy="10.57" r="0.48"/><path class="cls-hx1fsflwgzki183vj93gpf-1" d="M22.51 11.86a4.87 4.87 0 0 1-4.86 4.95h-1.47a4.28 4.28 0 0 0-3.57 1.91l-1.15 1.72a4.74 4.74 0 0 1-4 2.12 4.61 4.61 0 0 1-3.87-2 13.07 13.07 0 0 1-2.18-7.26V12a10.55 10.55 0 0 1 21.1-.15Z"/></g></svg>