<svg xmlns="http://www.w3.org/2000/svg" xmlns:xlink="http://www.w3.org/1999/xlink" viewBox="0 0 175.8798 219.9069">
  <defs>
    <style>
      .cls-1, .cls-10, .cls-12, .cls-4, .cls-5, .cls-9 {
        fill: none;
      }

      .cls-1 {
        stroke: #253858;
      }

      .cls-1, .cls-10, .cls-11, .cls-12, .cls-4, .cls-5, .cls-9 {
        stroke-miterlimit: 10;
      }

      .cls-1, .cls-4, .cls-5 {
        stroke-width: 13px;
      }

      .cls-2 {
        fill: #bf2600;
      }

      .cls-3 {
        fill: url(#linear-gradient);
      }

      .cls-4 {
        stroke: #bf2600;
      }

      .cls-5 {
        stroke: #0052cc;
      }

      .cls-6 {
        fill: url(#linear-gradient-2);
      }

      .cls-7 {
        fill: #dfe1e5;
      }

      .cls-8 {
        fill: url(#linear-gradient-3);
      }

      .cls-9 {
        stroke: #ff5630;
        stroke-width: 13.3706px;
        stroke-dasharray: 1.956 14.1807;
      }

      .cls-10, .cls-11 {
        stroke: #0065ff;
      }

      .cls-10, .cls-11, .cls-12 {
        stroke-width: 2px;
      }

      .cls-11 {
        fill: #f4f5f7;
      }

      .cls-12 {
        stroke: url(#New_Gradient_Swatch_14);
      }

      .cls-13 {
        fill: url(#New_Gradient_Swatch_14-2);
      }
    </style>
    <linearGradient id="linear-gradient" x1="142.4756" y1="65.2308" x2="167.3379" y2="65.2308" gradientTransform="translate(-0.1046 128.9103) rotate(-45)" gradientUnits="userSpaceOnUse">
      <stop offset="0" stop-color="#253858"></stop>
      <stop offset="0.3748" stop-color="#324462"></stop>
      <stop offset="1" stop-color="#505f79"></stop>
    </linearGradient>
    <linearGradient id="linear-gradient-2" x1="581.5011" y1="69.7841" x2="705.8669" y2="194.1499" gradientTransform="matrix(-1, 0, 0, 1, 731.6239, 0)" gradientUnits="userSpaceOnUse">
      <stop offset="0" stop-color="#2684ff"></stop>
      <stop offset="1" stop-color="#0052cc"></stop>
    </linearGradient>
    <linearGradient id="linear-gradient-3" x1="8.8995" y1="134.0685" x2="158.5743" y2="134.0685" gradientUnits="userSpaceOnUse">
      <stop offset="0" stop-color="#dfe1e5"></stop>
      <stop offset="1" stop-color="#fff"></stop>
    </linearGradient>
    <linearGradient id="New_Gradient_Swatch_14" data-name="New Gradient Swatch 14" x1="70.8231" y1="16.8602" x2="104.5434" y2="16.8602" gradientUnits="userSpaceOnUse">
      <stop offset="0" stop-color="#0052cc"></stop>
      <stop offset="1" stop-color="#2684ff"></stop>
    </linearGradient>
    <linearGradient id="New_Gradient_Swatch_14-2" x1="73.6603" y1="31.169" x2="102.0272" y2="31.169" xlink:href="#New_Gradient_Swatch_14"></linearGradient>
  </defs>
  <title>Stopwatch</title>
  <g id="Layer_2" data-name="Layer 2">
    <g id="Objects">
      <line class="cls-1" x1="35.1638" y1="184.9739" x2="152.4903" y2="67.6473"></line>
      <path class="cls-2" d="M8.85,60.1791H30.7709a3.1359,3.1359,0,0,1,3.1359,3.1359v5.6687a0,0,0,0,1,0,0H5.7138a0,0,0,0,1,0,0V63.315A3.1359,3.1359,0,0,1,8.85,60.1791Z" transform="translate(-39.8636 32.9234) rotate(-45)"></path>
      <path class="cls-3" d="M144.5956,60.1791h21.9213a3.1359,3.1359,0,0,1,3.1359,3.1359v5.6687a0,0,0,0,1,0,0H141.46a0,0,0,0,1,0,0V63.315a3.1359,3.1359,0,0,1,3.1359-3.1359Z" transform="translate(91.2273 -91.0794) rotate(45)"></path>
      <line class="cls-4" x1="113.1305" y1="157.9016" x2="22.8762" y2="67.6473"></line>
      <line class="cls-5" x1="87.6833" y1="204.1054" x2="87.6833" y2="40.8033"></line>
      <circle class="cls-6" cx="87.9399" cy="131.967" r="87.9399"></circle>
      <path id="_Path_" data-name="&lt;Path&gt;" class="cls-7" d="M99.8052,58.0834A74.83,74.83,0,1,1,14.056,120.1013,74.9156,74.9156,0,0,1,99.8052,58.0834Z"></path>
      <path class="cls-8" d="M95.6023,62.2863A74.722,74.722,0,0,0,32.858,81.3681a74.7844,74.7844,0,0,0,105.9611,105.4A74.78,74.78,0,0,0,95.6023,62.2863Z"></path>
      <path class="cls-9" d="M34.0056,130.3072A53.96,53.96,0,1,1,86.28,185.9017,54.0205,54.0205,0,0,1,34.0056,130.3072Z"></path>
      <line class="cls-10" x1="104.3357" y1="73.5868" x2="87.6833" y2="132.4544"></line>
      <circle class="cls-11" cx="87.6833" cy="132.4047" r="6.0471"></circle>
      <circle class="cls-12" cx="87.6833" cy="16.8602" r="15.8602"></circle>
      <path class="cls-13" d="M98.8865,34.6286V23.1046a1.57,1.57,0,0,0-1.57-1.57H78.3709a1.57,1.57,0,0,0-1.57,1.57v11.524a1.57,1.57,0,0,1-1.57,1.57h0a1.57,1.57,0,0,0-1.57,1.57v3.0342h28.3669V37.7691a1.57,1.57,0,0,0-1.57-1.57h0A1.57,1.57,0,0,1,98.8865,34.6286Z"></path>
    </g>
  </g>
</svg>
